# xmcd
#
# Track frame offsets: 
#        225
#        32138
#        58543
#        80553
#        107218
#        133768
#        156975
#        182273
#        187888
#        197803
#
# Disc length: 2866 seconds
#
# Revision: 2
# Processed by: cddbd v1.5.2PL0 Copyright (c) Steve Scherf et al.
# Submitted via: ExactAudioCopy v0.99pb3
#
DISCID=840b2f0a
DTITLE=???? - S-F-X
DYEAR=1984
DGENRE=Techno
TTITLE0=NON-STANDARD MIXTURE
TTITLE1=BODY SNATCHERS (SPECIAL MIX)
TTITLE2=ANDROGENA
TTITLE3=SFX
TTITLE4=STRANGE LOVE
TTITLE5=ALTERNATIVE 3
TTITLE6=DARK SIDE OF THE STAR
TTITLE7=MEDIUM COMPOSITION ;#1
TTITLE8=MEDIUM COMPOSITION ;#2
TTITLE9=3-6-9
EXTD=YEAR: 1984
EXTT0=
EXTT1=
EXTT2=
EXTT3=
EXTT4=
EXTT5=
EXTT6=
EXTT7=
EXTT8=
EXTT9=
PLAYORDER=
